<svg id="Capa_1" data-name="Capa 1" xmlns="http://www.w3.org/2000/svg" viewBox="0 0 50 50"><defs><style>.cls-1{fill:#fff;}</style></defs><title>logo-web</title><path class="cls-1" d="M25,0A25,25,0,1,1,0,24.93,25,25,0,0,1,25,0Zm-1.2,14.55c-2.47,0-4.91,0-7.35,0-.17,0-.41.3-.49.51-.32.9-.63,1.8-.86,2.72a23.43,23.43,0,0,0-.83,6h9.53Zm2.36,20.88c2.49,0,4.91,0,7.33,0,.19,0,.48-.31.55-.53.47-1.65,1-3.3,1.32-5,.25-1.2.29-2.44.43-3.68H26.17ZM35.74,23.8a26.2,26.2,0,0,0-1.8-8.91c-.07-.18-.45-.33-.69-.33-1.23,0-2.45,0-3.68,0H26.21V23.8ZM14.29,26.14a7.46,7.46,0,0,0,0,1.26c.36,2,.66,4,1.16,6s.61,2,2.74,2h5.56a1.67,1.67,0,0,0,.08-.29c0-2.83,0-5.65,0-8.47,0-.44-.2-.53-.58-.53Zm-.86-11.62c-2.23,0-4.57,0-6.91,0a.88.88,0,0,0-.58.51c-.71,1.91-1.44,3.81-2,5.76a18.93,18.93,0,0,0-.43,3h8.17ZM38.34,23.8h8.09a7.14,7.14,0,0,0,0-.81,22.48,22.48,0,0,0-2.19-7.68,1.23,1.23,0,0,0-1.34-.8c-1.89,0-3.78,0-5.67,0-.27,0-.55,0-.65,0ZM13.42,35.44l-1.76-9.26H3.6a1.72,1.72,0,0,0-.05.35A20.54,20.54,0,0,0,6,35.11a.73.73,0,0,0,.55.32C8.9,35.45,11.21,35.44,13.42,35.44Zm33-9.24H38.34l-1.77,9.24c2.2,0,4.56,0,6.92,0A.82.82,0,0,0,44,35c.51-1.17,1-2.33,1.45-3.52A17.49,17.49,0,0,0,46.46,26.2ZM29.76,46a22,22,0,0,0,12.57-8.24c-2.36,0-4.51,0-6.66,0-.18,0-.42.26-.54.46-1,1.58-1.86,3.21-2.9,4.75C31.54,44,30.66,44.92,29.76,46Zm-22-33.9a2,2,0,0,0,.33.11c2,0,4.05,0,6.07,0a1.15,1.15,0,0,0,.74-.53c1-1.53,1.82-3.12,2.83-4.61a38,38,0,0,1,2.49-3A21.61,21.61,0,0,0,7.75,12.11ZM30,4.06c.05.2.05.26.08.29a27.36,27.36,0,0,1,5.08,7.38.79.79,0,0,0,.87.49h5.67a4.4,4.4,0,0,0,.58-.09A21.69,21.69,0,0,0,30,4.06ZM20,45.93c0-.17,0-.24-.06-.27a29,29,0,0,1-5.18-7.51.91.91,0,0,0-.68-.36c-1.94,0-3.88,0-5.83,0a3,3,0,0,0-.51.11A21.67,21.67,0,0,0,20,45.93Zm-2.84-8.12A24,24,0,0,0,23.82,46V37.81Zm8.94,0V46c2.4-1.58,6.11-6.28,6.5-8.17ZM23.81,12.19V4a24.23,24.23,0,0,0-6.6,8.2Zm2.37,0h6.59A24,24,0,0,0,26.18,4Z"/></svg>