<svg id="Capa_1" data-name="Capa 1" xmlns="http://www.w3.org/2000/svg" viewBox="0 0 50 50"><defs><style>.cls-1{fill:#fff;}</style></defs><title>logo-twitter</title><path class="cls-1" d="M16,45.35h-.61a.43.43,0,0,0-.14,0,27.43,27.43,0,0,1-4.43-.4A28.79,28.79,0,0,1,.15,40.82L0,40.71a21.05,21.05,0,0,0,8-.62,20.79,20.79,0,0,0,7.16-3.62,10.24,10.24,0,0,1-5.94-2,10.11,10.11,0,0,1-3.61-5c.76,0,1.51.1,2.26.11a9,9,0,0,0,2.31-.34A10.32,10.32,0,0,1,2,19c.75.29,1.47.59,2.22.83a8.07,8.07,0,0,0,2.38.38A10.26,10.26,0,0,1,3.47,6.59a29.31,29.31,0,0,0,21.12,10.7,1,1,0,0,0,0-.19,10.23,10.23,0,0,1-.08-3.86,10.25,10.25,0,0,1,8.61-8.46l1.11-.13H35l.19,0c.51.07,1,.11,1.54.21a10.12,10.12,0,0,1,5.18,2.85.32.32,0,0,0,.36.12,20.35,20.35,0,0,0,5.48-2l.84-.46a10.42,10.42,0,0,1-4.42,5.64.78.78,0,0,0,.23,0c.59-.1,1.18-.19,1.77-.32A20.37,20.37,0,0,0,50,9.48v0s0,0,0,0a21,21,0,0,1-5,5.18.32.32,0,0,0-.09.22c0,.69,0,1.38,0,2.08a28.38,28.38,0,0,1-1.48,8.21,29.93,29.93,0,0,1-6.89,11.5,27.1,27.1,0,0,1-7.92,5.75,29.06,29.06,0,0,1-11.84,2.8Z"/></svg>