<svg id="Capa_1" data-name="Capa 1" xmlns="http://www.w3.org/2000/svg" viewBox="0 0 50 50"><defs><style>.cls-1{fill:#fff;}</style></defs><title>logo-instagram</title><path class="cls-1" d="M12.8,0H37.2c.51.08,1,.13,1.53.25A13.61,13.61,0,0,1,49.58,10.54c.2.73.28,1.5.41,2.25V37.18a4.51,4.51,0,0,1-.1.53,21.75,21.75,0,0,1-1,3.88c-2.49,5.39-6.76,8.27-12.71,8.35-7.41.11-14.83,0-22.25,0A13.35,13.35,0,0,1,6,47.52,13.61,13.61,0,0,1,0,35.91Q0,25,0,14.05a13.18,13.18,0,0,1,.25-2.81A13.57,13.57,0,0,1,10.56.41C11.29.21,12.05.13,12.8,0ZM4.45,25V35.82A10,10,0,0,0,5,39.17a9.36,9.36,0,0,0,9.16,6.37c7.26,0,14.51,0,21.76,0a10.78,10.78,0,0,0,3.3-.51,9.24,9.24,0,0,0,6.39-9.12c0-7.27,0-14.54,0-21.81a10.76,10.76,0,0,0-.5-3.25A9.23,9.23,0,0,0,36,4.44c-7.3,0-14.61,0-21.91,0a9.41,9.41,0,0,0-9.61,9.68Z"/><path class="cls-1" d="M25,37.86A12.88,12.88,0,1,1,37.88,25,12.92,12.92,0,0,1,25,37.86ZM33.44,25A8.44,8.44,0,1,0,25,33.42,8.45,8.45,0,0,0,33.44,25Z"/><path class="cls-1" d="M38.41,8.36a3.24,3.24,0,1,1-3.24,3.23A3.27,3.27,0,0,1,38.41,8.36Z"/></svg>